<svg xmlns="http://www.w3.org/2000/svg" xmlns:xlink="http://www.w3.org/1999/xlink" width="500" zoomAndPan="magnify" viewBox="0 0 375 374.999991" height="500" preserveAspectRatio="xMidYMid meet" version="1.0"><defs><clipPath id="c6b70835a8"><path d="M 32.617188 34.027344 L 342.367188 34.027344 L 342.367188 340.777344 L 32.617188 340.777344 Z M 32.617188 34.027344 " clip-rule="nonzero"/></clipPath></defs><g clip-path="url(#c6b70835a8)"><path stroke-linecap="butt" transform="matrix(0.75, 0, 0, 0.75, -167.352304, -176.632724)" fill="none" stroke-linejoin="miter" d="M 639.152072 303.494693 C 626.511446 293.900942 605.521861 290.994692 589.839569 290.468651 C 558.480192 289.432192 533.152065 288.140525 513.84998 286.609275 C 474.558311 283.489483 443.594767 283.801983 389.172889 282.84365 C 350.360386 282.145733 303.443717 289.411359 287.20934 331.051987 C 278.844757 352.54678 273.657256 376.130115 271.641631 401.812408 C 269.099964 434.208243 268.355173 467.494704 269.407256 501.666581 C 270.438506 535.822833 271.282256 574.656169 276.818715 610.22388 C 279.49059 627.348881 284.511424 641.484299 291.886424 652.630133 C 309.490592 679.182218 338.751011 687.218677 371.183304 686.11451 C 427.131225 684.213468 464.511435 683.703051 483.31352 684.58326 C 520.396856 686.322843 545.584357 687.400968 558.870817 687.817635 C 580.219776 688.48951 597.110402 688.17701 609.553112 686.885343 C 633.037488 684.463468 651.865614 672.203051 658.605198 648.984299 C 663.907282 630.687423 665.558324 612.025963 666.948949 593.650962 C 670.068741 552.427001 673.141657 512.635332 676.162491 474.270746 C 679.13645 436.807202 675.370824 404.520741 669.948949 363.385322 C 666.855199 339.833237 657.766656 317.645736 639.152072 303.494693 " stroke="#808080" stroke-width="1.034" stroke-opacity="1" stroke-miterlimit="4"/></g><path stroke-linecap="butt" transform="matrix(0.75, 0, 0, 0.75, -167.352304, -176.632724)" fill="none" stroke-linejoin="miter" d="M 456.573935 504.833248 C 456.459352 505.213456 456.43331 505.604081 456.49581 505.999915 C 456.553102 506.395748 456.693727 506.760331 456.917685 507.093665 C 457.141643 507.426998 457.422893 507.697831 457.766643 507.906165 C 458.105185 508.114498 458.474977 508.239498 458.876018 508.286373 L 465.995811 509.051998 C 466.396852 509.093665 466.787477 509.051998 467.167686 508.92179 C 467.542686 508.79679 467.881227 508.588457 468.167686 508.312415 C 468.459352 508.036373 468.672894 507.708248 468.818727 507.333248 C 468.964561 506.963456 469.021852 506.572831 468.995811 506.17179 L 467.652061 485.328038 C 467.631227 485.015538 467.558311 484.708247 467.428102 484.41658 C 467.303102 484.130122 467.126019 483.869705 466.907269 483.63533 C 466.688519 483.406163 466.438519 483.223872 466.152061 483.083247 C 465.870811 482.937413 465.568727 482.848872 465.251019 482.817622 C 464.938519 482.781163 464.626019 482.796788 464.313519 482.874913 C 464.006227 482.94783 463.719769 483.07283 463.454144 483.244705 C 463.188519 483.421788 462.96456 483.63533 462.771852 483.890538 C 462.584352 484.145747 462.443727 484.426997 462.349977 484.72908 L 456.573935 504.833248 " stroke="#808080" stroke-width="1.034" stroke-opacity="1" stroke-miterlimit="4"/><path stroke-linecap="butt" transform="matrix(0.75, 0, 0, 0.75, -167.352304, -176.632724)" fill="none" stroke-linejoin="miter" d="M 471.188519 530.187416 C 471.230186 529.624916 471.162478 529.078041 470.985394 528.541583 C 470.808311 528.010333 470.537478 527.531166 470.167686 527.104083 C 469.803102 526.676999 469.365602 526.338458 468.860394 526.083249 C 468.360394 525.833249 467.829144 525.682208 467.266644 525.640541 L 456.740602 524.869708 C 456.178102 524.828041 455.631227 524.895749 455.094768 525.072833 C 454.563518 525.249916 454.079143 525.520749 453.657268 525.890541 C 453.230185 526.260333 452.891643 526.692624 452.636435 527.197833 C 452.381226 527.697833 452.235393 528.234291 452.193726 528.791583 L 452.073935 530.421791 C 452.032268 530.979083 452.099976 531.531166 452.27706 532.062416 C 452.454143 532.598875 452.730185 533.078041 453.094768 533.505125 C 453.46456 533.932208 453.90206 534.27075 454.40206 534.525958 C 454.907268 534.775958 455.438518 534.921792 456.001018 534.963458 L 466.527061 535.7395 C 467.084352 535.781167 467.636436 535.713458 468.167686 535.536375 C 468.704144 535.359292 469.183311 535.08325 469.610394 534.718667 C 470.037477 534.348875 470.376019 533.916583 470.626019 533.411375 C 470.881228 532.906166 471.027061 532.374916 471.068728 531.812416 L 471.188519 530.187416 " stroke="#808080" stroke-width="1.034" stroke-opacity="1" stroke-miterlimit="4"/><path stroke-linecap="butt" transform="matrix(0.75, 0, 0, 0.75, -167.352304, -176.632724)" fill="none" stroke-linejoin="miter" d="M 448.438518 555.395751 L 448.610393 562.635335 C 448.615601 563.031168 448.698934 563.406168 448.860393 563.765543 C 449.016643 564.124919 449.240601 564.437419 449.521851 564.708252 C 449.803101 564.984294 450.126018 565.192627 450.49581 565.333252 C 450.860393 565.479085 451.235393 565.546794 451.631226 565.541585 L 462.829144 565.296794 C 463.443727 565.286377 464.053102 565.24471 464.65206 565.171794 C 465.251019 565.104085 465.834352 565.005127 466.396852 564.885335 C 466.964561 564.760335 467.495811 564.614502 468.001019 564.442627 C 468.511436 564.270752 468.974977 564.078044 469.407269 563.864502 C 469.834352 563.65096 470.214561 563.416585 470.553103 563.171793 C 470.886436 562.921793 471.167686 562.661377 471.396853 562.390543 C 471.626019 562.11971 471.797894 561.83846 471.907269 561.55721 C 472.021853 561.270752 472.073936 560.984293 472.063519 560.692627 L 471.969769 556.281168 C 471.964561 555.99471 471.896853 555.708251 471.771853 555.427001 C 471.641644 555.15096 471.459353 554.880126 471.219769 554.61971 C 470.980186 554.359293 470.688519 554.109293 470.339561 553.880126 C 469.995811 553.645751 469.605186 553.437418 469.167686 553.239501 C 468.730186 553.046793 468.251019 552.874918 467.740602 552.729084 C 467.224977 552.578043 466.688519 552.458251 466.120811 552.359293 C 465.553102 552.260334 464.96456 552.192626 464.365602 552.150959 C 463.761435 552.109293 463.157269 552.093668 462.542685 552.109293 L 451.33956 552.348876 C 450.948935 552.354084 450.568726 552.442626 450.209351 552.598876 C 449.849976 552.760334 449.532268 552.984293 449.261434 553.270751 C 448.985393 553.552001 448.782268 553.880126 448.636434 554.249918 C 448.495809 554.61971 448.428101 554.999918 448.438518 555.395751 " stroke="#808080" stroke-width="1.034" stroke-opacity="1" stroke-miterlimit="4"/><path stroke-linecap="butt" transform="matrix(0.75, 0, 0, 0.75, -167.352304, -176.632724)" fill="none" stroke-linejoin="miter" d="M 473.235394 588.12492 C 473.178103 587.74992 473.089561 587.385337 472.964561 587.025962 C 472.844769 586.671795 472.683311 586.328045 472.490603 586.005128 C 472.303103 585.677003 472.079144 585.37492 471.829144 585.09367 C 471.573936 584.81242 471.297894 584.557212 470.995811 584.328045 C 470.693728 584.098878 470.376019 583.90617 470.032269 583.739503 C 469.693727 583.578045 469.339561 583.447836 468.974977 583.354086 C 468.605186 583.255128 468.235394 583.197836 467.860394 583.177003 C 467.480186 583.15617 467.105186 583.171795 466.730186 583.223878 L 452.860393 585.177003 C 452.485393 585.229087 452.12081 585.317628 451.761435 585.442628 C 451.407268 585.567628 451.063518 585.723878 450.740601 585.916587 C 450.412476 586.109295 450.110393 586.328045 449.829143 586.578045 C 449.547893 586.833253 449.292684 587.109295 449.063518 587.411378 C 448.834351 587.713462 448.641643 588.036378 448.474976 588.37492 C 448.313518 588.713462 448.183309 589.067628 448.089559 589.432212 C 447.990601 589.802004 447.933309 590.171795 447.912476 590.546795 C 447.891643 590.927004 447.907268 591.302004 447.959351 591.677004 L 448.402059 594.812421 C 448.454143 595.187421 448.542684 595.552004 448.667684 595.906171 C 448.792684 596.265546 448.948934 596.604087 449.141643 596.932212 C 449.334351 597.260337 449.553101 597.562421 449.808309 597.843671 C 450.05831 598.124921 450.334351 598.380129 450.636435 598.609296 C 450.938518 598.833254 451.261435 599.031171 451.599976 599.197837 C 451.938518 599.359296 452.292685 599.489504 452.662476 599.583254 C 453.02706 599.677004 453.396851 599.734296 453.77706 599.760338 C 454.15206 599.781171 454.52706 599.765546 454.90206 599.713463 L 468.771852 597.760337 C 469.146852 597.708254 469.516644 597.619712 469.870811 597.494712 C 470.230186 597.369712 470.568728 597.213462 470.896853 597.020754 C 471.219769 596.828046 471.521853 596.609296 471.808311 596.354087 C 472.089561 596.104087 472.344769 595.828046 472.568728 595.525962 C 472.797894 595.223879 472.995811 594.900962 473.157269 594.562421 C 473.323936 594.223879 473.448936 593.869712 473.547894 593.49992 C 473.641644 593.135337 473.698936 592.765545 473.719769 592.385337 C 473.740603 592.010337 473.724978 591.635337 473.672894 591.260337 L 473.235394 588.12492 " stroke="#808080" stroke-width="1.034" stroke-opacity="1" stroke-miterlimit="4"/><path stroke-linecap="butt" transform="matrix(0.75, 0, 0, 0.75, -167.352304, -176.632724)" fill="none" stroke-linejoin="miter" d="M 474.490603 627.708256 L 474.058311 620.177006 C 474.032269 619.775964 473.933311 619.390547 473.751019 619.025964 C 473.573936 618.66138 473.334353 618.34888 473.032269 618.078047 C 472.724978 617.812422 472.381228 617.614505 472.001019 617.479089 C 471.615603 617.34888 471.224978 617.296797 470.818728 617.322839 L 457.672893 618.114505 C 457.037477 618.156172 456.407268 618.229089 455.787477 618.343672 C 455.167685 618.458255 454.568726 618.609297 453.990601 618.791589 C 453.412476 618.97388 452.865601 619.19263 452.349976 619.44263 C 451.829143 619.687422 451.355185 619.963464 450.922893 620.265547 C 450.485393 620.572839 450.105185 620.895756 449.766643 621.239506 C 449.433309 621.583256 449.152059 621.947839 448.928101 622.322839 C 448.709351 622.697839 448.542684 623.078047 448.443726 623.468672 C 448.339559 623.859297 448.297893 624.249922 448.318726 624.640547 L 448.417684 626.317631 C 448.438518 626.713464 448.521851 627.093673 448.667684 627.473881 C 448.813518 627.848881 449.021851 628.213464 449.287476 628.562423 C 449.553101 628.906173 449.870809 629.234298 450.24581 629.541589 C 450.615601 629.843673 451.037476 630.124923 451.506226 630.374923 C 451.974976 630.624923 452.480185 630.843673 453.021851 631.031173 C 453.568726 631.218673 454.141643 631.364506 454.740601 631.484298 C 455.33956 631.598881 455.954143 631.677006 456.584352 631.713465 C 457.21456 631.755131 457.849977 631.755131 458.490602 631.718673 L 471.636436 630.927006 C 472.037478 630.900965 472.417686 630.802006 472.782269 630.624923 C 473.141644 630.44784 473.459353 630.208256 473.724978 629.906173 C 473.990603 629.604089 474.193728 629.265548 474.323936 628.885339 C 474.459353 628.505131 474.511436 628.114506 474.490603 627.708256 " stroke="#808080" stroke-width="1.034" stroke-opacity="1" stroke-miterlimit="4"/><path stroke-linecap="butt" transform="matrix(0.75, 0, 0, 0.75, -167.352304, -176.632724)" fill="none" stroke-linejoin="miter" d="M 477.448936 654.567633 C 477.412478 654.187424 477.339561 653.812424 477.235395 653.447841 C 477.12602 653.083258 476.985395 652.734299 476.808311 652.395758 C 476.631228 652.057216 476.422895 651.739508 476.183311 651.442633 C 475.943728 651.145758 475.672895 650.874924 475.381228 650.635341 C 475.089561 650.390549 474.777061 650.177007 474.438519 649.994716 C 474.105186 649.812424 473.756228 649.666591 473.391644 649.552007 C 473.027061 649.437424 472.657269 649.359299 472.277061 649.322841 C 471.902061 649.281174 471.521853 649.275966 471.141644 649.312424 L 454.037476 650.869716 C 453.657268 650.906174 453.287476 650.973883 452.917685 651.083258 C 452.553101 651.192633 452.204143 651.333258 451.865601 651.510341 C 451.52706 651.687424 451.209351 651.895758 450.912476 652.135341 C 450.62081 652.374924 450.349976 652.640549 450.105185 652.932216 C 449.860393 653.229091 449.646851 653.541591 449.464559 653.874924 C 449.282268 654.208258 449.136434 654.557216 449.021851 654.921799 C 448.907268 655.286383 448.829143 655.661383 448.792684 656.036383 C 448.751018 656.416591 448.745809 656.7968 448.782268 657.177008 L 448.839559 657.7968 C 448.876018 658.177008 448.943726 658.5468 449.053101 658.916591 C 449.162476 659.281175 449.303101 659.630133 449.480184 659.968675 C 449.657268 660.307216 449.865601 660.624925 450.105185 660.9218 C 450.344768 661.218675 450.610393 661.4843 450.907268 661.729092 C 451.198935 661.973883 451.511435 662.187425 451.844768 662.369717 C 452.18331 662.552008 452.532268 662.697842 452.891643 662.812425 C 453.256226 662.927008 453.631226 663.005133 454.006226 663.041592 C 454.386435 663.083258 454.766643 663.088467 455.146852 663.052008 L 472.251019 661.494717 C 472.631228 661.458258 473.001019 661.39055 473.365603 661.281175 C 473.735394 661.1718 474.084353 661.031175 474.422894 660.854092 C 474.761436 660.677008 475.073936 660.468675 475.370811 660.229091 C 475.667686 659.989508 475.93852 659.723883 476.183311 659.432216 C 476.428103 659.135341 476.641645 658.822841 476.823936 658.489508 C 477.006228 658.156175 477.152061 657.802008 477.266645 657.442633 C 477.381228 657.07805 477.454145 656.70305 477.495811 656.32805 C 477.537478 655.947841 477.537478 655.567633 477.506228 655.187424 L 477.448936 654.567633 " stroke="#808080" stroke-width="1.034" stroke-opacity="1" stroke-miterlimit="4"/><path stroke-linecap="butt" transform="matrix(0.75, 0, 0, 0.75, -167.352304, -176.632724)" fill="none" stroke-linejoin="miter" d="M 498.594771 410.281158 C 500.256229 409.239492 501.433313 408.265533 502.120813 407.354075 C 515.91248 388.812407 529.344773 378.234281 551.006233 361.010322 C 559.568733 354.223863 573.620818 349.114488 583.001027 355.520738 C 595.688527 364.176989 587.36561 382.95824 579.761443 392.171782 C 572.344776 401.171783 565.146859 408.734283 558.178108 414.859284 C 547.495816 424.229076 536.053107 433.911368 523.849981 443.906161 C 523.662481 444.062411 523.537481 444.255119 523.474981 444.494702 C 523.412481 444.729077 523.417689 444.958244 523.501023 445.187411 C 523.589564 445.416577 523.730189 445.604077 523.928106 445.739494 C 524.131231 445.880119 524.349981 445.947827 524.594773 445.947827 C 538.193732 445.801994 551.126024 445.343661 563.667692 448.775953 C 580.386443 453.333245 623.198946 467.869704 612.193737 492.359289 C 606.146861 505.885331 592.11561 504.999915 580.698943 499.244706 C 552.178108 484.828038 521.021856 481.255121 489.454145 482.067621 C 489.162479 482.083246 488.917687 482.192621 488.714562 482.411371 C 488.516645 482.624913 488.417687 482.880122 488.422895 483.171788 L 494.876021 662.536383 C 494.886437 662.864508 494.959354 663.177008 495.084354 663.479092 C 495.214562 663.781175 495.391646 664.052008 495.620812 664.286383 C 495.844771 664.525967 496.110396 664.713467 496.407271 664.854092 C 496.704146 664.994717 497.016646 665.07805 497.349979 665.104092 C 524.006231 667.312425 551.105191 668.677009 578.657276 669.208259 C 584.719777 669.317634 593.688527 668.729092 605.573945 667.432217 C 617.532279 666.135342 626.053113 661.666592 631.141655 654.020758 C 641.959364 637.786382 644.474989 621.260339 645.964572 601.447838 C 649.771864 551.234293 652.823948 512.64054 655.126031 485.66658 C 658.558323 445.682202 656.063531 412.843659 650.183323 371.135323 C 648.459364 358.869697 646.964572 350.801988 645.698947 346.932196 C 639.303114 327.437403 626.943738 316.364486 608.615612 313.713444 C 599.001028 312.322819 589.235402 311.265527 577.485401 310.56761 C 503.417688 306.229068 451.917685 303.395735 392.167681 303.828026 C 380.256222 303.91136 367.183304 304.66136 352.954136 306.083235 C 331.287468 308.260318 315.980176 318.557194 307.042675 336.97907 C 303.271842 344.765529 300.959341 350.744696 300.110383 354.92178 C 291.079132 399.916574 287.376007 445.713452 289.006216 492.312414 C 290.219757 527.171791 291.803091 556.760335 293.756216 581.083253 C 297.063508 622.192631 304.71455 663.64055 355.688512 666.041592 C 374.891638 666.95305 398.256223 666.57805 425.77185 664.911383 C 426.08435 664.895758 426.381225 664.822842 426.667683 664.692633 C 426.948933 664.562425 427.198933 664.380133 427.407266 664.150967 C 427.620808 663.9218 427.782266 663.661383 427.89685 663.369717 C 428.006225 663.07805 428.058308 662.775967 428.0531 662.468675 C 427.162475 602.598879 425.844766 543.494709 440.766642 485.97908 C 440.896851 485.468663 440.761434 485.04158 440.360392 484.69783 C 439.964559 484.35408 439.52185 484.286372 439.037475 484.489497 C 414.834349 494.900956 399.172889 507.874915 374.94893 528.432208 C 365.641637 536.322833 346.693719 540.088459 344.099969 522.822832 C 341.485386 505.525956 365.568721 484.489497 377.537471 476.432204 C 384.396847 471.828037 390.652056 466.687412 396.292681 461.010328 C 396.443723 460.84887 396.537473 460.66137 396.563514 460.44262 C 396.589556 460.22387 396.547889 460.020745 396.443723 459.828037 C 396.334348 459.635328 396.183306 459.494703 395.980181 459.400953 C 395.782264 459.307203 395.573931 459.28637 395.360389 459.328037 C 379.240597 462.864495 363.084345 468.588454 346.886428 476.505121 C 336.428094 481.63533 317.381217 486.671788 314.933301 469.473871 C 313.672884 460.697828 316.646842 453.525953 323.855176 447.958244 C 347.891636 429.395743 375.089555 422.119701 405.459348 426.135326 C 405.620807 426.166576 405.777057 426.140534 405.92289 426.062409 C 406.068723 425.979076 406.17289 425.864493 406.23539 425.708243 C 406.29789 425.551993 406.303098 425.395743 406.251015 425.234284 C 406.198932 425.078034 406.105182 424.953034 405.959348 424.864493 C 387.63643 411.984284 368.928096 407.328033 347.219761 404.187408 C 336.90726 402.676991 323.521843 395.406157 327.360385 383.078032 C 334.985385 358.494697 386.485389 370.078031 402.339556 376.843656 C 419.641641 384.244698 434.001017 392.145741 445.417684 400.541574 C 448.870809 403.067616 451.813518 406.640533 454.24581 411.260325 C 454.448935 411.630117 454.756226 411.791575 455.172893 411.749909 C 455.594768 411.71345 455.865602 411.4947 455.99581 411.093658 C 457.386435 406.390533 461.849977 390.624907 469.381227 363.79678 C 471.823936 355.04678 474.761436 347.218654 478.183311 340.312404 C 483.964562 328.536361 489.146854 321.796778 502.527063 321.916569 C 513.297897 322.010319 518.047897 331.390528 517.183314 340.958237 C 516.641647 347.036363 515.120814 353.489488 512.626022 360.317613 C 507.219772 375.156156 503.198938 386.525949 500.563521 394.421782 C 498.849979 399.572824 497.803104 404.6197 497.417688 409.5572 C 497.391646 409.874908 497.511438 410.1197 497.782271 410.286367 C 498.053104 410.453033 498.323938 410.447825 498.594771 410.281158 " stroke="#78626d" stroke-width="1.034" stroke-opacity="1" stroke-miterlimit="4"/><path fill="#ffffff" d="M 312.011719 50.988281 C 325.972656 61.601562 332.789062 78.242188 335.109375 95.90625 C 339.175781 126.757812 342 150.972656 339.769531 179.070312 C 337.503906 207.84375 335.199219 237.6875 332.863281 268.605469 C 331.816406 282.386719 330.578125 296.382812 326.601562 310.105469 C 321.546875 327.519531 307.425781 336.714844 289.8125 338.53125 C 280.480469 339.5 267.8125 339.734375 251.800781 339.230469 C 241.835938 338.921875 222.945312 338.109375 195.132812 336.804688 C 181.03125 336.144531 152.996094 336.527344 111.035156 337.953125 C 86.710938 338.78125 64.765625 332.753906 51.5625 312.839844 C 46.03125 304.480469 42.265625 293.878906 40.261719 281.035156 C 36.109375 254.359375 35.476562 225.234375 34.703125 199.617188 C 33.914062 173.988281 34.472656 149.023438 36.378906 124.726562 C 37.890625 105.464844 41.78125 87.777344 48.054688 71.65625 C 60.230469 40.425781 95.417969 34.976562 124.527344 35.5 C 165.34375 36.21875 188.566406 35.984375 218.035156 38.324219 C 232.511719 39.472656 251.507812 40.441406 275.027344 41.21875 C 286.789062 41.613281 302.53125 43.792969 312.011719 50.988281 Z M 206.59375 131.078125 C 207.839844 130.296875 208.722656 129.566406 209.238281 128.882812 C 219.582031 114.976562 229.65625 107.042969 245.902344 94.125 C 252.324219 89.035156 262.863281 85.203125 269.898438 90.007812 C 279.414062 96.5 273.171875 110.585938 267.46875 117.496094 C 261.90625 124.246094 256.507812 129.917969 251.28125 134.511719 C 243.269531 141.539062 234.6875 148.800781 225.535156 156.296875 C 225.394531 156.414062 225.300781 156.558594 225.253906 156.738281 C 225.207031 156.914062 225.210938 157.085938 225.273438 157.257812 C 225.339844 157.429688 225.445312 157.570312 225.59375 157.671875 C 225.746094 157.777344 225.910156 157.828125 226.09375 157.828125 C 236.292969 157.71875 245.992188 157.375 255.398438 159.949219 C 267.9375 163.367188 300.046875 174.269531 291.792969 192.636719 C 287.257812 202.78125 276.734375 202.117188 268.171875 197.800781 C 246.78125 186.988281 223.414062 184.308594 199.738281 184.917969 C 199.519531 184.929688 199.335938 185.011719 199.183594 185.175781 C 199.035156 185.335938 198.960938 185.527344 198.964844 185.746094 L 203.804688 320.269531 C 203.8125 320.515625 203.867188 320.75 203.960938 320.976562 C 204.058594 321.203125 204.191406 321.40625 204.363281 321.582031 C 204.53125 321.761719 204.730469 321.902344 204.953125 322.007812 C 205.175781 322.113281 205.410156 322.175781 205.660156 322.195312 C 225.652344 323.851562 245.976562 324.875 266.640625 325.273438 C 271.1875 325.355469 277.914062 324.910156 286.828125 323.941406 C 295.796875 322.96875 302.1875 319.617188 306.003906 313.882812 C 314.117188 301.707031 316.003906 289.3125 317.121094 274.453125 C 319.976562 236.792969 322.265625 207.847656 323.992188 187.617188 C 326.566406 157.628906 324.695312 133 320.285156 101.71875 C 318.992188 92.519531 317.871094 86.46875 316.921875 83.566406 C 312.125 68.945312 302.855469 60.640625 289.109375 58.652344 C 281.898438 57.609375 274.574219 56.816406 265.761719 56.292969 C 210.210938 53.039062 171.585938 50.914062 126.773438 51.238281 C 117.839844 51.300781 108.035156 51.863281 97.363281 52.929688 C 81.113281 54.5625 69.632812 62.285156 62.929688 76.101562 C 60.101562 81.941406 58.367188 86.425781 57.730469 89.554688 C 50.957031 123.304688 48.179688 157.652344 49.402344 192.601562 C 50.3125 218.746094 51.5 240.9375 52.964844 259.179688 C 55.445312 290.011719 61.183594 321.097656 99.414062 322.898438 C 113.816406 323.582031 131.339844 323.300781 151.976562 322.050781 C 152.210938 322.039062 152.433594 321.984375 152.648438 321.886719 C 152.859375 321.789062 153.046875 321.652344 153.203125 321.480469 C 153.363281 321.308594 153.484375 321.113281 153.570312 320.894531 C 153.652344 320.675781 153.691406 320.449219 153.6875 320.21875 C 153.019531 275.316406 152.03125 230.988281 163.222656 187.851562 C 163.320312 187.46875 163.21875 187.148438 162.917969 186.890625 C 162.621094 186.632812 162.289062 186.582031 161.925781 186.734375 C 143.773438 194.542969 132.027344 204.273438 113.859375 219.691406 C 106.878906 225.609375 92.667969 228.433594 90.722656 215.484375 C 88.761719 202.511719 106.824219 186.734375 115.800781 180.691406 C 120.945312 177.238281 125.636719 173.382812 129.867188 169.125 C 129.980469 169.003906 130.050781 168.863281 130.070312 168.699219 C 130.089844 168.535156 130.058594 168.382812 129.980469 168.238281 C 129.898438 168.09375 129.785156 167.984375 129.632812 167.917969 C 129.484375 167.847656 129.328125 167.832031 129.167969 167.863281 C 117.078125 170.515625 104.960938 174.808594 92.8125 180.746094 C 84.96875 184.59375 70.683594 188.371094 68.847656 175.472656 C 67.902344 168.890625 70.132812 163.511719 75.539062 159.335938 C 93.566406 145.414062 113.964844 139.957031 136.742188 142.96875 C 136.863281 142.992188 136.980469 142.972656 137.089844 142.914062 C 137.199219 142.851562 137.277344 142.765625 137.324219 142.648438 C 137.371094 142.53125 137.375 142.414062 137.335938 142.292969 C 137.296875 142.175781 137.226562 142.082031 137.117188 142.015625 C 123.375 132.351562 109.34375 128.863281 93.0625 126.507812 C 85.328125 125.375 75.289062 119.921875 78.167969 110.675781 C 83.886719 92.238281 122.511719 100.925781 134.402344 106 C 147.378906 111.550781 158.148438 117.476562 166.710938 123.773438 C 169.300781 125.667969 171.507812 128.347656 173.332031 131.8125 C 173.484375 132.089844 173.714844 132.210938 174.027344 132.179688 C 174.34375 132.152344 174.546875 131.988281 174.644531 131.6875 C 175.6875 128.160156 179.035156 116.335938 184.683594 96.210938 C 186.515625 89.652344 188.71875 83.78125 191.285156 78.601562 C 195.621094 69.769531 199.507812 64.714844 209.542969 64.804688 C 217.621094 64.875 221.183594 71.910156 220.535156 79.085938 C 220.128906 83.644531 218.988281 88.484375 217.117188 93.605469 C 213.0625 104.734375 210.046875 113.261719 208.070312 119.183594 C 206.785156 123.046875 206 126.832031 205.710938 130.535156 C 205.691406 130.773438 205.78125 130.957031 205.984375 131.082031 C 206.1875 131.207031 206.390625 131.203125 206.59375 131.078125 Z M 175.078125 201.992188 C 174.992188 202.277344 174.972656 202.570312 175.019531 202.867188 C 175.0625 203.164062 175.167969 203.4375 175.335938 203.6875 C 175.503906 203.9375 175.714844 204.140625 175.96875 204.296875 C 176.226562 204.453125 176.503906 204.546875 176.804688 204.582031 L 182.144531 205.15625 C 182.445312 205.1875 182.738281 205.15625 183.023438 205.058594 C 183.304688 204.964844 183.558594 204.808594 183.773438 204.601562 C 183.992188 204.394531 184.152344 204.148438 184.261719 203.867188 C 184.371094 203.589844 184.414062 203.296875 184.394531 202.996094 L 183.386719 187.363281 C 183.371094 187.128906 183.316406 186.898438 183.21875 186.679688 C 183.125 186.464844 182.992188 186.269531 182.828125 186.09375 C 182.664062 185.921875 182.476562 185.785156 182.261719 185.679688 C 182.050781 185.570312 181.824219 185.503906 181.585938 185.480469 C 181.351562 185.453125 181.117188 185.464844 180.882812 185.523438 C 180.652344 185.578125 180.4375 185.671875 180.238281 185.800781 C 180.039062 185.933594 179.871094 186.09375 179.726562 186.285156 C 179.585938 186.476562 179.480469 186.6875 179.410156 186.914062 Z M 186.039062 221.007812 C 186.070312 220.585938 186.019531 220.175781 185.886719 219.773438 C 185.753906 219.375 185.550781 219.015625 185.273438 218.695312 C 185 218.375 184.671875 218.121094 184.292969 217.929688 C 183.917969 217.742188 183.519531 217.628906 183.097656 217.597656 L 175.203125 217.019531 C 174.78125 216.988281 174.371094 217.039062 173.96875 217.171875 C 173.570312 217.304688 173.207031 217.507812 172.890625 217.785156 C 172.570312 218.0625 172.316406 218.386719 172.125 218.765625 C 171.933594 219.140625 171.824219 219.542969 171.792969 219.960938 L 171.703125 221.183594 C 171.671875 221.601562 171.722656 222.015625 171.855469 222.414062 C 171.988281 222.816406 172.195312 223.175781 172.46875 223.496094 C 172.746094 223.816406 173.074219 224.070312 173.449219 224.261719 C 173.828125 224.449219 174.226562 224.558594 174.648438 224.589844 L 182.542969 225.171875 C 182.960938 225.203125 183.375 225.152344 183.773438 225.019531 C 184.175781 224.886719 184.535156 224.679688 184.855469 224.40625 C 185.175781 224.128906 185.429688 223.804688 185.617188 223.425781 C 185.808594 223.046875 185.917969 222.648438 185.949219 222.226562 Z M 168.976562 239.914062 L 169.105469 245.34375 C 169.109375 245.640625 169.171875 245.921875 169.292969 246.191406 C 169.410156 246.460938 169.578125 246.695312 169.789062 246.898438 C 170 247.105469 170.242188 247.261719 170.519531 247.367188 C 170.792969 247.476562 171.074219 247.527344 171.371094 247.523438 L 179.769531 247.339844 C 180.230469 247.332031 180.6875 247.300781 181.136719 247.246094 C 181.585938 247.195312 182.023438 247.121094 182.445312 247.03125 C 182.871094 246.9375 183.269531 246.828125 183.648438 246.699219 C 184.03125 246.570312 184.378906 246.425781 184.703125 246.265625 C 185.023438 246.105469 185.308594 245.929688 185.5625 245.746094 C 185.8125 245.558594 186.023438 245.363281 186.195312 245.160156 C 186.367188 244.957031 186.496094 244.746094 186.578125 244.535156 C 186.664062 244.320312 186.703125 244.105469 186.695312 243.886719 L 186.625 240.578125 C 186.621094 240.363281 186.570312 240.148438 186.476562 239.9375 C 186.378906 239.730469 186.242188 239.527344 186.0625 239.332031 C 185.882812 239.136719 185.664062 238.949219 185.402344 238.777344 C 185.144531 238.601562 184.851562 238.445312 184.523438 238.296875 C 184.195312 238.152344 183.835938 238.023438 183.453125 237.914062 C 183.066406 237.800781 182.664062 237.710938 182.238281 237.636719 C 181.8125 237.5625 181.371094 237.511719 180.921875 237.480469 C 180.46875 237.449219 180.015625 237.4375 179.554688 237.449219 L 171.152344 237.628906 C 170.859375 237.632812 170.574219 237.699219 170.304688 237.816406 C 170.035156 237.9375 169.796875 238.105469 169.59375 238.320312 C 169.386719 238.53125 169.234375 238.777344 169.125 239.054688 C 169.019531 239.332031 168.96875 239.617188 168.976562 239.914062 Z M 187.574219 264.460938 C 187.53125 264.179688 187.464844 263.90625 187.371094 263.636719 C 187.28125 263.371094 187.160156 263.113281 187.015625 262.871094 C 186.871094 262.625 186.707031 262.398438 186.519531 262.1875 C 186.328125 261.976562 186.121094 261.785156 185.894531 261.613281 C 185.667969 261.441406 185.429688 261.296875 185.171875 261.171875 C 184.917969 261.050781 184.652344 260.953125 184.378906 260.882812 C 184.101562 260.808594 183.824219 260.765625 183.542969 260.75 C 183.257812 260.734375 182.976562 260.746094 182.695312 260.785156 L 172.292969 262.25 C 172.011719 262.289062 171.738281 262.355469 171.46875 262.449219 C 171.203125 262.542969 170.945312 262.660156 170.703125 262.804688 C 170.457031 262.949219 170.230469 263.113281 170.019531 263.300781 C 169.808594 263.492188 169.617188 263.699219 169.445312 263.925781 C 169.273438 264.152344 169.128906 264.394531 169.003906 264.648438 C 168.882812 264.902344 168.785156 265.167969 168.714844 265.441406 C 168.640625 265.71875 168.597656 265.996094 168.582031 266.277344 C 168.566406 266.5625 168.578125 266.84375 168.617188 267.125 L 168.949219 269.476562 C 168.988281 269.757812 169.054688 270.03125 169.148438 270.296875 C 169.242188 270.566406 169.359375 270.820312 169.503906 271.066406 C 169.648438 271.3125 169.8125 271.539062 170.003906 271.75 C 170.191406 271.960938 170.398438 272.152344 170.625 272.324219 C 170.851562 272.492188 171.09375 272.640625 171.347656 272.765625 C 171.601562 272.886719 171.867188 272.984375 172.144531 273.054688 C 172.417969 273.125 172.695312 273.167969 172.980469 273.1875 C 173.261719 273.203125 173.542969 273.191406 173.824219 273.152344 L 184.226562 271.6875 C 184.507812 271.648438 184.78125 271.582031 185.050781 271.488281 C 185.320312 271.394531 185.574219 271.277344 185.820312 271.132812 C 186.0625 270.988281 186.289062 270.824219 186.503906 270.632812 C 186.714844 270.445312 186.90625 270.238281 187.074219 270.011719 C 187.246094 269.785156 187.394531 269.542969 187.515625 269.289062 C 187.640625 269.035156 187.734375 268.769531 187.808594 268.492188 C 187.878906 268.21875 187.921875 267.941406 187.9375 267.65625 C 187.953125 267.375 187.941406 267.09375 187.902344 266.8125 Z M 188.515625 294.148438 L 188.191406 288.5 C 188.171875 288.199219 188.097656 287.910156 187.960938 287.636719 C 187.828125 287.363281 187.648438 287.128906 187.421875 286.925781 C 187.191406 286.726562 186.933594 286.578125 186.648438 286.476562 C 186.359375 286.378906 186.066406 286.339844 185.761719 286.359375 L 175.902344 286.953125 C 175.425781 286.984375 174.953125 287.039062 174.488281 287.125 C 174.023438 287.210938 173.574219 287.324219 173.140625 287.460938 C 172.707031 287.597656 172.296875 287.761719 171.910156 287.949219 C 171.519531 288.132812 171.164062 288.339844 170.839844 288.566406 C 170.511719 288.796875 170.226562 289.039062 169.972656 289.296875 C 169.722656 289.554688 169.511719 289.828125 169.34375 290.109375 C 169.179688 290.390625 169.054688 290.675781 168.980469 290.96875 C 168.902344 291.261719 168.871094 291.554688 168.886719 291.847656 L 168.960938 293.105469 C 168.976562 293.402344 169.039062 293.6875 169.148438 293.972656 C 169.257812 294.253906 169.414062 294.527344 169.613281 294.789062 C 169.8125 295.050781 170.050781 295.292969 170.332031 295.523438 C 170.609375 295.75 170.925781 295.960938 171.277344 296.148438 C 171.628906 296.335938 172.007812 296.5 172.417969 296.640625 C 172.824219 296.78125 173.253906 296.890625 173.703125 296.980469 C 174.152344 297.066406 174.613281 297.125 175.085938 297.152344 C 175.558594 297.183594 176.035156 297.183594 176.515625 297.15625 L 186.375 296.5625 C 186.675781 296.542969 186.960938 296.46875 187.234375 296.335938 C 187.503906 296.203125 187.742188 296.023438 187.941406 295.796875 C 188.140625 295.570312 188.292969 295.316406 188.390625 295.03125 C 188.492188 294.746094 188.53125 294.453125 188.515625 294.148438 Z M 190.734375 314.292969 C 190.707031 314.007812 190.652344 313.726562 190.574219 313.453125 C 190.492188 313.179688 190.386719 312.917969 190.253906 312.664062 C 190.121094 312.410156 189.964844 312.171875 189.785156 311.949219 C 189.605469 311.726562 189.402344 311.523438 189.183594 311.34375 C 188.964844 311.160156 188.730469 311 188.476562 310.863281 C 188.226562 310.726562 187.964844 310.617188 187.691406 310.53125 C 187.417969 310.445312 187.140625 310.386719 186.855469 310.359375 C 186.574219 310.328125 186.289062 310.324219 186.003906 310.351562 L 173.175781 311.519531 C 172.890625 311.546875 172.613281 311.597656 172.335938 311.679688 C 172.0625 311.761719 171.800781 311.867188 171.546875 312 C 171.292969 312.132812 171.054688 312.289062 170.832031 312.46875 C 170.613281 312.648438 170.410156 312.847656 170.226562 313.066406 C 170.042969 313.289062 169.882812 313.523438 169.746094 313.773438 C 169.609375 314.023438 169.5 314.285156 169.414062 314.558594 C 169.328125 314.832031 169.269531 315.113281 169.242188 315.394531 C 169.210938 315.679688 169.210938 315.964844 169.234375 316.25 L 169.277344 316.714844 C 169.304688 317 169.355469 317.277344 169.4375 317.554688 C 169.519531 317.828125 169.625 318.089844 169.757812 318.34375 C 169.890625 318.597656 170.046875 318.835938 170.226562 319.058594 C 170.40625 319.28125 170.605469 319.480469 170.828125 319.664062 C 171.046875 319.847656 171.28125 320.007812 171.53125 320.144531 C 171.785156 320.28125 172.046875 320.390625 172.316406 320.476562 C 172.589844 320.5625 172.871094 320.621094 173.152344 320.648438 C 173.4375 320.679688 173.722656 320.683594 174.007812 320.65625 L 186.835938 319.488281 C 187.121094 319.460938 187.398438 319.410156 187.671875 319.328125 C 187.949219 319.246094 188.210938 319.140625 188.464844 319.007812 C 188.71875 318.875 188.953125 318.71875 189.175781 318.539062 C 189.398438 318.359375 189.601562 318.160156 189.785156 317.941406 C 189.96875 317.71875 190.128906 317.484375 190.265625 317.234375 C 190.402344 316.984375 190.511719 316.71875 190.597656 316.449219 C 190.683594 316.175781 190.738281 315.894531 190.769531 315.613281 C 190.800781 315.328125 190.800781 315.042969 190.777344 314.757812 Z M 190.734375 314.292969 " fill-opacity="1" fill-rule="nonzero"/><path fill="#1b1917" d="M 206.59375 131.078125 C 206.390625 131.203125 206.1875 131.207031 205.984375 131.082031 C 205.78125 130.957031 205.691406 130.773438 205.710938 130.535156 C 206 126.832031 206.785156 123.046875 208.070312 119.183594 C 210.046875 113.261719 213.0625 104.734375 217.117188 93.605469 C 218.988281 88.484375 220.128906 83.644531 220.535156 79.085938 C 221.183594 71.910156 217.621094 64.875 209.542969 64.804688 C 199.503906 64.714844 195.621094 69.769531 191.285156 78.601562 C 188.71875 83.78125 186.515625 89.652344 184.683594 96.210938 C 179.035156 116.335938 175.6875 128.160156 174.644531 131.6875 C 174.546875 131.988281 174.339844 132.152344 174.027344 132.179688 C 173.714844 132.210938 173.484375 132.089844 173.332031 131.8125 C 171.507812 128.347656 169.300781 125.667969 166.710938 123.773438 C 158.148438 117.476562 147.378906 111.550781 134.402344 106 C 122.511719 100.925781 83.886719 92.238281 78.167969 110.675781 C 75.289062 119.921875 85.328125 125.375 93.0625 126.507812 C 109.34375 128.863281 123.375 132.351562 137.117188 142.011719 C 137.226562 142.082031 137.296875 142.171875 137.335938 142.292969 C 137.375 142.414062 137.371094 142.53125 137.324219 142.648438 C 137.277344 142.765625 137.199219 142.851562 137.089844 142.914062 C 136.980469 142.972656 136.863281 142.992188 136.742188 142.96875 C 113.964844 139.957031 93.566406 145.414062 75.539062 159.335938 C 70.132812 163.511719 67.902344 168.890625 68.847656 175.472656 C 70.683594 188.371094 84.96875 184.59375 92.8125 180.746094 C 104.960938 174.808594 117.078125 170.515625 129.167969 167.863281 C 129.328125 167.832031 129.484375 167.847656 129.632812 167.917969 C 129.785156 167.984375 129.898438 168.09375 129.980469 168.238281 C 130.058594 168.378906 130.089844 168.535156 130.070312 168.699219 C 130.050781 168.863281 129.980469 169.003906 129.867188 169.125 C 125.636719 173.382812 120.945312 177.238281 115.800781 180.691406 C 106.824219 186.734375 88.761719 202.511719 90.722656 215.480469 C 92.667969 228.433594 106.878906 225.609375 113.859375 219.691406 C 132.027344 204.273438 143.773438 194.542969 161.925781 186.734375 C 162.289062 186.582031 162.621094 186.632812 162.917969 186.890625 C 163.21875 187.148438 163.320312 187.46875 163.222656 187.851562 C 152.03125 230.988281 153.019531 275.316406 153.6875 320.214844 C 153.691406 320.449219 153.652344 320.675781 153.570312 320.894531 C 153.484375 321.113281 153.363281 321.308594 153.203125 321.480469 C 153.046875 321.652344 152.859375 321.789062 152.648438 321.886719 C 152.433594 321.984375 152.210938 322.039062 151.976562 322.050781 C 131.339844 323.300781 113.816406 323.582031 99.414062 322.898438 C 61.183594 321.097656 55.445312 290.011719 52.964844 259.179688 C 51.5 240.9375 50.3125 218.746094 49.402344 192.601562 C 48.179688 157.652344 50.957031 123.304688 57.730469 89.554688 C 58.367188 86.425781 60.101562 81.941406 62.929688 76.101562 C 69.632812 62.285156 81.113281 54.5625 97.363281 52.929688 C 108.035156 51.863281 117.839844 51.300781 126.773438 51.238281 C 171.585938 50.914062 210.210938 53.039062 265.761719 56.292969 C 274.574219 56.816406 281.898438 57.609375 289.109375 58.652344 C 302.855469 60.640625 312.125 68.945312 316.921875 83.566406 C 317.871094 86.46875 318.992188 92.519531 320.285156 101.71875 C 324.695312 133 326.566406 157.628906 323.992188 187.617188 C 322.265625 207.847656 319.976562 236.792969 317.121094 274.453125 C 316.003906 289.3125 314.117188 301.707031 306.003906 313.882812 C 302.1875 319.617188 295.796875 322.96875 286.828125 323.941406 C 277.914062 324.914062 271.1875 325.355469 266.640625 325.273438 C 245.976562 324.875 225.652344 323.851562 205.65625 322.195312 C 205.410156 322.175781 205.175781 322.113281 204.953125 322.007812 C 204.730469 321.902344 204.53125 321.761719 204.363281 321.582031 C 204.191406 321.40625 204.058594 321.203125 203.960938 320.976562 C 203.867188 320.75 203.8125 320.515625 203.804688 320.269531 L 198.964844 185.746094 C 198.960938 185.527344 199.035156 185.335938 199.183594 185.175781 C 199.335938 185.011719 199.519531 184.929688 199.738281 184.917969 C 223.414062 184.308594 246.78125 186.988281 268.171875 197.800781 C 276.734375 202.117188 287.257812 202.78125 291.792969 192.636719 C 300.046875 174.269531 267.9375 163.367188 255.398438 159.949219 C 245.992188 157.375 236.292969 157.71875 226.09375 157.828125 C 225.910156 157.828125 225.746094 157.777344 225.59375 157.671875 C 225.445312 157.570312 225.335938 157.429688 225.273438 157.257812 C 225.210938 157.085938 225.207031 156.914062 225.253906 156.738281 C 225.300781 156.558594 225.394531 156.414062 225.535156 156.296875 C 234.6875 148.800781 243.269531 141.539062 251.28125 134.511719 C 256.507812 129.917969 261.90625 124.246094 267.46875 117.496094 C 273.171875 110.585938 279.414062 96.5 269.898438 90.007812 C 262.863281 85.203125 252.324219 89.035156 245.902344 94.125 C 229.65625 107.042969 219.582031 114.976562 209.238281 128.882812 C 208.722656 129.566406 207.839844 130.296875 206.59375 131.078125 Z M 206.59375 131.078125 " fill-opacity="1" fill-rule="nonzero"/><path fill="#ffffff" d="M 175.078125 201.992188 L 179.410156 186.914062 C 179.480469 186.6875 179.585938 186.476562 179.726562 186.285156 C 179.871094 186.09375 180.039062 185.933594 180.238281 185.800781 C 180.4375 185.671875 180.652344 185.578125 180.882812 185.523438 C 181.117188 185.464844 181.351562 185.453125 181.585938 185.480469 C 181.824219 185.503906 182.050781 185.570312 182.261719 185.679688 C 182.476562 185.785156 182.664062 185.921875 182.828125 186.09375 C 182.992188 186.269531 183.125 186.464844 183.21875 186.679688 C 183.316406 186.898438 183.371094 187.128906 183.386719 187.363281 L 184.394531 202.996094 C 184.414062 203.296875 184.371094 203.589844 184.261719 203.867188 C 184.152344 204.148438 183.992188 204.394531 183.773438 204.601562 C 183.558594 204.8125 183.304688 204.964844 183.023438 205.058594 C 182.738281 205.15625 182.445312 205.1875 182.144531 205.15625 L 176.804688 204.582031 C 176.503906 204.546875 176.226562 204.453125 175.972656 204.296875 C 175.714844 204.140625 175.503906 203.9375 175.335938 203.6875 C 175.167969 203.4375 175.0625 203.164062 175.019531 202.867188 C 174.972656 202.570312 174.992188 202.277344 175.078125 201.992188 Z M 175.078125 201.992188 " fill-opacity="1" fill-rule="nonzero"/><path fill="#ffffff" d="M 175.203125 217.019531 L 183.097656 217.597656 C 183.519531 217.628906 183.917969 217.742188 184.296875 217.929688 C 184.671875 218.121094 185 218.375 185.273438 218.695312 C 185.550781 219.011719 185.753906 219.375 185.886719 219.773438 C 186.019531 220.175781 186.070312 220.585938 186.039062 221.007812 L 185.949219 222.226562 C 185.917969 222.648438 185.808594 223.046875 185.617188 223.425781 C 185.429688 223.800781 185.175781 224.128906 184.855469 224.40625 C 184.535156 224.679688 184.175781 224.886719 183.773438 225.019531 C 183.375 225.148438 182.960938 225.199219 182.542969 225.171875 L 174.644531 224.589844 C 174.226562 224.558594 173.824219 224.449219 173.449219 224.257812 C 173.070312 224.070312 172.746094 223.816406 172.46875 223.496094 C 172.195312 223.175781 171.988281 222.816406 171.855469 222.414062 C 171.722656 222.015625 171.671875 221.601562 171.703125 221.183594 L 171.792969 219.960938 C 171.824219 219.539062 171.933594 219.140625 172.125 218.765625 C 172.316406 218.386719 172.570312 218.058594 172.890625 217.785156 C 173.207031 217.507812 173.570312 217.304688 173.96875 217.171875 C 174.371094 217.039062 174.78125 216.988281 175.203125 217.019531 Z M 175.203125 217.019531 " fill-opacity="1" fill-rule="nonzero"/><path fill="#ffffff" d="M 168.976562 239.914062 C 168.96875 239.617188 169.019531 239.332031 169.125 239.054688 C 169.234375 238.777344 169.390625 238.53125 169.59375 238.320312 C 169.796875 238.105469 170.035156 237.9375 170.304688 237.816406 C 170.574219 237.699219 170.859375 237.632812 171.15625 237.628906 L 179.554688 237.449219 C 180.015625 237.4375 180.46875 237.449219 180.921875 237.480469 C 181.371094 237.511719 181.8125 237.5625 182.238281 237.636719 C 182.664062 237.710938 183.070312 237.800781 183.453125 237.914062 C 183.835938 238.023438 184.195312 238.152344 184.523438 238.296875 C 184.851562 238.445312 185.144531 238.601562 185.402344 238.777344 C 185.664062 238.949219 185.882812 239.136719 186.0625 239.332031 C 186.242188 239.527344 186.382812 239.730469 186.476562 239.9375 C 186.570312 240.148438 186.621094 240.363281 186.625 240.578125 L 186.699219 243.886719 C 186.703125 244.105469 186.664062 244.320312 186.578125 244.535156 C 186.496094 244.746094 186.367188 244.957031 186.195312 245.160156 C 186.023438 245.363281 185.8125 245.558594 185.5625 245.746094 C 185.3125 245.929688 185.023438 246.105469 184.703125 246.265625 C 184.382812 246.425781 184.03125 246.570312 183.652344 246.699219 C 183.269531 246.828125 182.871094 246.9375 182.445312 247.03125 C 182.023438 247.121094 181.585938 247.195312 181.136719 247.246094 C 180.6875 247.300781 180.230469 247.332031 179.773438 247.339844 L 171.371094 247.523438 C 171.078125 247.527344 170.792969 247.476562 170.519531 247.367188 C 170.246094 247.261719 170 247.105469 169.789062 246.898438 C 169.578125 246.695312 169.410156 246.460938 169.292969 246.191406 C 169.171875 245.921875 169.109375 245.640625 169.105469 245.34375 Z M 168.976562 239.914062 " fill-opacity="1" fill-rule="nonzero"/><path fill="#ffffff" d="M 172.292969 262.246094 L 182.695312 260.785156 C 182.976562 260.746094 183.257812 260.734375 183.539062 260.75 C 183.824219 260.765625 184.101562 260.808594 184.378906 260.878906 C 184.652344 260.953125 184.917969 261.046875 185.171875 261.171875 C 185.425781 261.296875 185.667969 261.441406 185.894531 261.613281 C 186.121094 261.785156 186.328125 261.972656 186.519531 262.1875 C 186.707031 262.398438 186.871094 262.625 187.015625 262.871094 C 187.160156 263.113281 187.28125 263.371094 187.371094 263.636719 C 187.464844 263.90625 187.53125 264.179688 187.574219 264.460938 L 187.902344 266.808594 C 187.941406 267.089844 187.953125 267.371094 187.9375 267.65625 C 187.921875 267.9375 187.878906 268.214844 187.808594 268.492188 C 187.734375 268.765625 187.640625 269.03125 187.515625 269.285156 C 187.390625 269.542969 187.246094 269.78125 187.074219 270.007812 C 186.902344 270.234375 186.714844 270.441406 186.5 270.632812 C 186.289062 270.820312 186.0625 270.988281 185.816406 271.128906 C 185.574219 271.273438 185.316406 271.394531 185.050781 271.488281 C 184.78125 271.582031 184.507812 271.648438 184.226562 271.6875 L 173.828125 273.148438 C 173.546875 273.1875 173.265625 273.199219 172.980469 273.183594 C 172.699219 273.167969 172.417969 273.125 172.144531 273.050781 C 171.871094 272.980469 171.605469 272.882812 171.347656 272.761719 C 171.09375 272.636719 170.851562 272.492188 170.625 272.320312 C 170.398438 272.148438 170.191406 271.957031 170.003906 271.746094 C 169.816406 271.535156 169.648438 271.308594 169.503906 271.0625 C 169.359375 270.820312 169.242188 270.5625 169.148438 270.296875 C 169.054688 270.027344 168.988281 269.753906 168.949219 269.472656 L 168.617188 267.125 C 168.578125 266.84375 168.566406 266.5625 168.582031 266.277344 C 168.601562 265.996094 168.644531 265.714844 168.714844 265.441406 C 168.785156 265.167969 168.882812 264.902344 169.003906 264.648438 C 169.128906 264.390625 169.277344 264.152344 169.445312 263.925781 C 169.617188 263.699219 169.808594 263.488281 170.019531 263.300781 C 170.230469 263.113281 170.460938 262.945312 170.703125 262.800781 C 170.949219 262.65625 171.203125 262.539062 171.472656 262.445312 C 171.738281 262.351562 172.015625 262.285156 172.292969 262.246094 Z M 172.292969 262.246094 " fill-opacity="1" fill-rule="nonzero"/><path fill="#ffffff" d="M 188.515625 294.148438 C 188.53125 294.453125 188.492188 294.746094 188.390625 295.03125 C 188.292969 295.316406 188.140625 295.570312 187.941406 295.796875 C 187.742188 296.023438 187.503906 296.203125 187.234375 296.335938 C 186.960938 296.46875 186.675781 296.542969 186.375 296.5625 L 176.515625 297.15625 C 176.035156 297.183594 175.558594 297.183594 175.085938 297.152344 C 174.613281 297.125 174.152344 297.066406 173.703125 296.980469 C 173.253906 296.894531 172.824219 296.78125 172.414062 296.640625 C 172.007812 296.5 171.628906 296.335938 171.277344 296.148438 C 170.925781 295.960938 170.609375 295.75 170.332031 295.523438 C 170.050781 295.292969 169.8125 295.050781 169.613281 294.789062 C 169.414062 294.527344 169.257812 294.253906 169.148438 293.972656 C 169.039062 293.6875 168.976562 293.402344 168.960938 293.105469 L 168.886719 291.847656 C 168.871094 291.554688 168.902344 291.261719 168.980469 290.96875 C 169.054688 290.675781 169.179688 290.390625 169.34375 290.109375 C 169.511719 289.828125 169.722656 289.554688 169.972656 289.296875 C 170.226562 289.039062 170.511719 288.796875 170.839844 288.566406 C 171.164062 288.339844 171.519531 288.132812 171.90625 287.949219 C 172.296875 287.761719 172.707031 287.597656 173.140625 287.460938 C 173.574219 287.324219 174.023438 287.210938 174.488281 287.125 C 174.953125 287.039062 175.425781 286.984375 175.902344 286.953125 L 185.761719 286.359375 C 186.066406 286.339844 186.359375 286.378906 186.648438 286.476562 C 186.933594 286.578125 187.191406 286.726562 187.421875 286.925781 C 187.648438 287.128906 187.828125 287.363281 187.960938 287.636719 C 188.097656 287.910156 188.171875 288.199219 188.191406 288.5 Z M 188.515625 294.148438 " fill-opacity="1" fill-rule="nonzero"/><path fill="#ffffff" d="M 173.175781 311.519531 L 186.003906 310.351562 C 186.289062 310.324219 186.574219 310.328125 186.859375 310.355469 C 187.140625 310.386719 187.421875 310.445312 187.695312 310.53125 C 187.964844 310.613281 188.230469 310.726562 188.480469 310.863281 C 188.730469 311 188.964844 311.15625 189.1875 311.339844 C 189.40625 311.523438 189.605469 311.726562 189.785156 311.949219 C 189.964844 312.171875 190.121094 312.410156 190.253906 312.660156 C 190.386719 312.914062 190.492188 313.179688 190.574219 313.453125 C 190.65625 313.726562 190.707031 314.003906 190.734375 314.289062 L 190.777344 314.757812 C 190.800781 315.042969 190.800781 315.328125 190.769531 315.613281 C 190.738281 315.894531 190.683594 316.175781 190.597656 316.445312 C 190.511719 316.71875 190.402344 316.980469 190.265625 317.234375 C 190.128906 317.484375 189.96875 317.71875 189.785156 317.9375 C 189.601562 318.160156 189.402344 318.359375 189.179688 318.539062 C 188.957031 318.71875 188.71875 318.875 188.464844 319.007812 C 188.210938 319.140625 187.949219 319.246094 187.675781 319.328125 C 187.402344 319.40625 187.121094 319.460938 186.835938 319.488281 L 174.003906 320.65625 C 173.722656 320.679688 173.4375 320.679688 173.152344 320.648438 C 172.867188 320.617188 172.589844 320.5625 172.316406 320.476562 C 172.042969 320.390625 171.78125 320.28125 171.53125 320.144531 C 171.28125 320.007812 171.042969 319.847656 170.824219 319.664062 C 170.605469 319.480469 170.40625 319.277344 170.226562 319.058594 C 170.046875 318.835938 169.890625 318.597656 169.757812 318.34375 C 169.625 318.089844 169.519531 317.828125 169.4375 317.554688 C 169.355469 317.277344 169.304688 317 169.277344 316.714844 L 169.234375 316.246094 C 169.207031 315.960938 169.210938 315.679688 169.242188 315.394531 C 169.269531 315.109375 169.328125 314.832031 169.414062 314.558594 C 169.5 314.285156 169.609375 314.023438 169.746094 313.773438 C 169.882812 313.519531 170.042969 313.285156 170.226562 313.066406 C 170.40625 312.847656 170.609375 312.648438 170.832031 312.46875 C 171.054688 312.289062 171.292969 312.132812 171.546875 312 C 171.796875 311.867188 172.0625 311.757812 172.335938 311.679688 C 172.609375 311.597656 172.890625 311.542969 173.175781 311.519531 Z M 173.175781 311.519531 " fill-opacity="1" fill-rule="nonzero"/></svg>